<svg width="20" height="20" viewBox="0 0 20 20" fill="none" xmlns="http://www.w3.org/2000/svg">
<path opacity="0.5" d="M11.5995 2.44256C9.72599 2.59868 6.64875 5.78417 5.42383 7.34935C5.62798 8.16596 6.59771 9.31574 7.1081 9.7921C7.68653 9.04354 9.35379 7.05644 11.3953 5.50487C13.2327 4.10846 15.4444 4.51812 16.1929 4.99448L16.1797 4.9762C14.8615 3.15092 14.1938 2.22637 11.5995 2.44256Z" fill="#6556DD"/>
<path d="M9.1503 0.0949931C7.31508 0.50282 6.08795 2.34069 5.27133 4.17807C5.06721 4.99469 5.01615 5.61423 5.32237 6.94123C5.90081 6.19267 7.31279 4.60679 9.35433 3.05522C10.4772 2.20186 11.9574 1.73531 13.6417 2.23861C12.3147 0.401224 10.7835 -0.267947 9.1503 0.0949931Z" fill="#342D63"/>
<path d="M2.44304 8.47278C2.59917 10.3463 5.78465 13.4235 7.34983 14.6484C8.16645 14.4443 9.31623 13.4746 9.79259 12.9642C9.04403 12.3857 7.05693 10.7185 5.50536 8.67694C4.10894 6.83955 4.51861 4.62788 4.99497 3.87932L4.97669 3.89252C3.15141 5.21075 2.22686 5.87846 2.44304 8.47278Z" fill="#998EF8"/>
<path d="M0.0949931 10.9225C0.50282 12.7577 2.34069 13.9848 4.17807 14.8014C4.99469 15.0055 5.61423 15.0566 6.94123 14.7504C6.19267 14.172 4.60679 12.76 3.05522 10.7184C2.20186 9.59558 1.73531 8.11537 2.23861 6.43107C0.401224 7.75807 -0.267947 9.28923 0.0949931 10.9225Z" fill="#291B58"/>
<path opacity="0.5" d="M8.47473 17.5574C10.3482 17.4013 13.4255 14.2158 14.6504 12.6507C14.4462 11.834 13.4765 10.6843 12.9661 10.2079C12.3877 10.9565 10.7204 12.9436 8.67889 14.4951C6.8415 15.8915 4.62984 15.4819 3.88127 15.0055L3.89447 15.0238C5.2127 16.8491 5.88042 17.7736 8.47473 17.5574Z" fill="#6556DD"/>
<path d="M10.9239 19.905C12.7591 19.4972 13.9863 17.6593 14.8029 15.8219C15.007 15.0053 15.0581 14.3858 14.7518 13.0588C14.1734 13.8073 12.7614 15.3932 10.7199 16.9448C9.59704 17.7981 8.11683 18.2647 6.43254 17.7614C7.75954 19.5988 9.29069 20.2679 10.9239 19.905Z" fill="#342D63"/>
<path d="M17.555 11.5985C17.3989 9.72501 14.2134 6.64778 12.6482 5.42285C11.8316 5.62701 10.6818 6.59674 10.2055 7.10712C10.954 7.68556 12.9411 9.35281 14.4927 11.3944C15.8891 13.2317 15.4794 15.4434 15.0031 16.192L15.0214 16.1788C16.8466 14.8605 17.7712 14.1928 17.555 11.5985Z" fill="#998EF8"/>
<path d="M19.9031 9.14883C19.4952 7.31361 17.6574 6.08648 15.82 5.26987C15.0034 5.06575 14.3838 5.01469 13.0568 5.32091C13.8054 5.89934 15.3913 7.31133 16.9428 9.35287C17.7962 10.4757 18.2627 11.9559 17.7594 13.6402C19.5968 12.3132 20.266 10.7821 19.9031 9.14883Z" fill="#291B58"/>
</svg>
